<?xml version="1.0" encoding="UTF-8" standalone="no"?>
<!-- Created with Inkscape (http://www.inkscape.org/) -->

<svg
   width="1920"
   height="1080"
   viewBox="0 0 1920 1080"
   version="1.1"
   id="svg1"
   xmlns="http://www.w3.org/2000/svg"
   xmlns:svg="http://www.w3.org/2000/svg">
  <defs
     id="defs1">
    <rect
       x="211.92802"
       y="203.59897"
       width="676.50386"
       height="301.69666"
       id="rect1" />
  </defs>
  <g
     id="layer1">
    <path
       style="display:none;fill:#ffffff;stroke:#000000;stroke-width:10.848;stroke-dasharray:none;paint-order:stroke fill markers"
       d="m 1290.9336,755.61362 c 13.7568,0.0297 13.9285,0.32887 6.3719,0.73075 -7.5566,0.40189 -22.8416,0.90649 -39.9986,1.34706 -16.8515,0.43281 -34.9211,0.79111 -47.9008,0.95089 -12.9796,0.15973 -20.8692,0.12085 -17.3611,-0.24058 -5.6123,0.15051 -17.0499,0.44897 -28.4876,0.74748 -11.4374,0.29847 -22.875,0.59698 -28.4874,0.74749 -54.7664,1.43785 -112.5943,2.83991 -168.37585,4.25173 -55.7816,1.41184 -109.51682,2.83343 -156.09779,4.31037 -6.81243,0.21604 -13.82666,0.42254 -20.6559,0.61846 -6.82923,0.19596 -13.47358,0.38122 -19.54641,0.55474 -16.05075,0.84792 -30.24892,1.37986 -42.65137,1.69554 -12.40244,0.31565 -23.00918,0.41505 -31.87701,0.39768 -9.60772,-0.0187 -17.52791,-0.16165 -24.91562,-0.33875 -7.3877,-0.17711 -14.24289,-0.38856 -21.72064,-0.54446 -5.1631,-0.10618 -10.3884,-0.19739 -15.89373,-0.23151 -5.50532,-0.0341 -11.29067,-0.011 -17.57384,0.11145 -49.79817,2.52095 -97.3591,5.24244 -144.20873,8.12171 -46.84963,2.87927 -92.98795,5.91629 -139.94091,9.06824 -20.13995,1.34822 -42.01782,3.41253 -62.65698,5.5311 -20.63914,2.11858 -40.03955,4.29143 -55.22449,5.85667 9.8e-4,-1.2e-4 -0.12748,0.0155 -0.25594,0.0313 -0.12845,0.0157 -0.25691,0.0313 -0.25593,0.0312 -16.0953,1.96644 -24.3647,2.99116 -30.56273,3.7754 -6.19801,0.7842 -10.32464,1.32793 -18.13443,2.33235 -4.04358,0.52005 -6.55476,0.82097 -7.62299,0.90011 -1.06822,0.0791 -0.6935,-0.0635 1.0347,-0.43052 4.39375,-0.93314 11.54212,-2.15373 20.89496,-3.62381 9.35286,-1.4701 20.91022,-3.18969 34.12196,-5.12086 10.66471,-1.55631 21.78116,-3.17936 30.7601,-4.52313 8.97894,-1.34378 15.82036,-2.40826 17.93504,-2.84741 1.24564,-0.25868 1.52028,-0.40825 0.53514,-0.40836 -0.98514,-9e-5 -3.23005,0.14918 -7.02351,0.48817 -4.0843,0.36499 -9.18756,0.87566 -16.03543,1.61639 -6.84788,0.74072 -15.44036,1.71153 -26.50308,2.99679 0.0378,-0.005 -0.70441,0.0822 -1.44655,0.16868 -0.74212,0.0865 -1.48425,0.17292 -1.44652,0.16852 -18.89402,2.36611 -36.03855,4.54543 -52.42179,6.95164 -16.38322,2.40621 -32.00515,5.0393 -47.85393,8.31296 -24.019381,4.9648 -43.081724,10.39553 -58.166543,15.42865 -15.084831,5.03312 -26.192141,9.66863 -34.301488,13.04297 -3.171525,1.31969 -5.495375,2.25505 -6.466564,2.51511 -0.9711807,0.26005 -0.5897085,-0.15521 1.6494,-1.53672 1.734871,-1.07042 5.406512,-3.16134 10.858928,-5.86669 5.452414,-2.70535 12.685601,-6.02512 21.543535,-9.55319 4.463244,-2.02795 12.161883,-5.20569 22.836513,-8.83971 10.67462,-3.63399 24.325217,-7.72425 40.692399,-11.57726 15.74281,-3.70925 31.7162,-6.74782 48.71306,-9.45593 16.99684,-2.7081 35.01715,-5.0857 54.8538,-7.47305 0,0 1e-5,0 1e-5,0 0,0 0,0 0,0 5.36077,-0.64606 10.74202,-1.28375 16.13059,-1.9046 5.38856,-0.62084 10.78445,-1.22487 16.1745,-1.80362 -6.95342,0.28889 -7.74158,-0.18815 -6.09009,-0.97098 1.65147,-0.78285 5.74257,-1.87153 8.54765,-2.80602 1.38817,-0.46245 2.4496,-0.88553 2.70853,-1.21099 0.25892,-0.32548 -0.28464,-0.55334 -2.10648,-0.62535 -1.83122,-0.0723 -4.91892,0.0121 -9.74661,0.32055 -4.8277,0.30831 -11.39537,0.84035 -20.1865,1.66284 -1.73953,0.0864 -3.11616,0.14576 -4.15897,0.17984 -1.04281,0.034 -1.75182,0.043 -2.1561,0.0277 v 0 0 c -0.27404,-0.0107 -0.40726,-0.0314 -0.40827,-0.0631 -5.8e-4,-0.0316 0.13021,-0.0735 0.38494,-0.12538 v 0 0 c 1.29662,-0.26451 6.87091,-0.90929 14.86829,-1.76931 7.99738,-0.86002 18.41786,-1.93529 29.40686,-3.06081 9.46697,-0.96962 22.26277,-2.24668 34.22949,-3.48649 11.96673,-1.2398 23.10435,-2.44236 29.25502,-3.26299 1.93748,-0.1512 3.87638,-0.29782 5.8167,-0.43956 1.94034,-0.14174 3.88207,-0.27861 5.82519,-0.41037 54.56474,-3.68835 108.23911,-6.89014 161.20006,-9.80208 52.96096,-2.91192 105.20847,-5.53401 156.91955,-8.06292 24.6023,-1.20038 48.74698,-1.90812 72.3024,-2.48298 23.55541,-0.57486 46.52158,-1.01686 68.76681,-1.68572 3.90081,-0.0749 7.55859,-0.15554 11.00872,-0.24114 3.45006,-0.0855 6.69246,-0.17616 9.76225,-0.27112 v 0 0 c 29.22363,-0.90445 41.38032,-1.77817 52.51915,-2.31842 11.13882,-0.54023 21.2598,-0.74699 46.41164,-0.31751 15.77915,0.48721 47.04279,0.7524 86.93525,0.6454 39.89218,-0.10701 88.41338,-0.58625 138.70718,-1.58785 18.9237,-0.37713 38.0649,-0.80223 57.0896,-1.30627 19.0248,-0.50397 37.9331,-1.08676 56.3914,-1.77904 16.3353,-1.00997 50.3711,-2.12675 85.9534,-3.12191 35.5826,-0.99516 72.7118,-1.86867 95.2343,-2.39212 12.7183,-0.29561 23.0818,-0.50881 29.5194,-0.55606 6.4376,-0.0472 8.9493,0.0716 5.9638,0.44029 -2.897,0.35771 -11.1566,0.97918 -26.23,1.75949 -15.0732,0.78031 -36.9602,1.71943 -67.1122,2.71247 -14.7945,1.27447 -2.0795,1.59776 23.613,1.25121 25.6922,-0.34654 64.3618,-1.36296 101.4759,-2.76773 14.681,-0.55436 29.0221,-1.34619 42.0424,-2.12707 13.0201,-0.78088 24.7193,-1.55081 34.1163,-2.06131 5.2682,-0.28621 9.9137,-0.5166 13.6262,-0.66563 3.7125,-0.14907 6.4919,-0.21668 8.0279,-0.17743 2.1677,-0.14978 4.1824,-0.29181 6.0984,-0.42947 1.916,-0.13765 3.7335,-0.27092 5.5068,-0.4032 2.3439,-0.17682 4.1816,-0.30169 5.857,-0.44043 1.6757,-0.13873 3.1891,-0.29133 4.8846,-0.52368 0.2232,-0.0294 0.4663,-0.0671 0.7135,-0.10699 0.2472,-0.0399 0.4986,-0.0818 0.7381,-0.11971 0.257,-0.0415 0.5067,-0.0709 0.7478,-0.0911 0.2411,-0.0203 0.4736,-0.0312 0.6961,-0.0355 2.9768,-0.0494 5.1858,0.0482 6.6564,0.19694 1.4706,0.1487 2.2028,0.34845 2.2257,0.50328 0.023,0.15482 -0.6954,0.26437 -2.1553,0.42045 -1.4599,0.15606 -3.6616,0.35864 -6.6053,0.69952 -0.1931,0.0223 -0.3899,0.0496 -0.5878,0.0837 -0.198,0.0342 -0.3969,0.0754 -0.5944,0.12563 -0.2232,0.0563 -0.4664,0.1198 -0.7159,0.18319 -0.2494,0.0634 -0.5048,0.12664 -0.7524,0.18234 -1.6378,0.3687 -3.2122,0.65249 -4.9424,0.91813 -1.7302,0.26565 -3.616,0.51312 -5.8769,0.80916 -4.5619,0.598 -9.2969,1.15341 -14.6709,1.72376 -5.3739,0.57036 -11.3866,1.15566 -18.5041,1.81344 -8.4478,0.78075 -19.9801,1.83662 -32.8509,2.87727 -12.8709,1.04066 -27.0803,2.0661 -40.8826,2.78597 2.5695,0.10076 3.5801,0.27001 3.1393,0.49807 -0.4406,0.22805 -2.3328,0.51492 -5.5684,0.8509 -7.7254,0.80266 -21.2818,1.75671 -38.7158,2.74518 -17.4338,0.98849 -38.7451,2.01142 -61.9804,2.9519 -24.3496,0.98557 -47.5654,1.77276 -69.3627,2.46745 -21.7972,0.6947 -42.1757,1.2969 -60.8504,1.91249 -4.9252,0.47169 -3.9193,0.811 0.3483,1.07447 4.2678,0.26347 11.7976,0.45109 19.9203,0.61942 8.107,0.16803 16.7835,0.31227 23.3354,0.50795 6.5517,0.19573 10.9786,0.44295 10.5858,0.81693"
       id="path8" />
    <path
       d="m 553.51942,541.16778 q 6.53333,0 6.53333,6.53333 0,6.53333 -10.26667,11.19999 -63.46664,31.73333 -149.33328,34.53333 -44.79998,85.86663 -45.73332,88.66663 -0.93333,1.86667 -4.66666,9.33333 -2.8,6.53333 -5.6,10.26667 -5.6,9.33333 -12.13333,9.33333 -16.79999,0 -16.79999,-23.33333 0,-49.46665 -12.13333,-100.79996 -51.33332,-7.46667 -94.26663,-23.33333 l -125.999961,224.93325 -19.599993,14 q -11.199996,5.6 -17.733327,5.6 -8.399997,0 -8.399997,-9.33333 0,-5.6 3.733332,-13.06666 L 175.51955,549.56777 Q 107.38624,518.76779 66.319585,471.1678 25.252933,422.63449 25.252933,363.83451 q 0,-77.46664 55.99998,-77.46664 36.399987,0 83.066637,35.46665 47.59998,35.46666 87.7333,94.26663 L 434.05279,95.0346 q 10.26666,-14.933328 36.39999,-14.933328 6.53333,0 6.53333,4.666665 0,3.733332 -204.39993,366.799873 32.66666,58.79998 47.59998,122.26662 27.06666,3.73334 63.46665,3.73334 Q 489.11944,372.2345 670.18604,48.36795 680.4527,29.70129 708.45269,27.834624 q 7.46667,0 7.46667,5.599998 0,4.666665 -6.53333,15.866661 -6.53333,11.199996 -56.93332,99.866627 -182.93327,318.26656 -242.66658,428.39986 78.39997,-4.66667 143.73329,-36.39999 z m -368.66654,-7.46667 53.19998,-93.3333 q -35.46666,-53.19998 -77.46664,-85.86663 -41.99999,-32.66666 -70.93331,-32.66666 -31.733322,0 -31.733322,38.26665 0,55.06665 33.599988,99.86664 34.533324,44.79998 93.333304,73.7333 z m 33.59999,14 q 37.33332,14.93333 80.26663,22.39999 -15.86666,-51.33331 -39.19998,-95.19997 -40.13332,70.93331 -41.06665,72.79998 z m 104.53329,41.99998 q 8.4,41.06666 8.4,82.13331 l 0.93333,10.26666 q 6.53333,-14.93333 42.93332,-88.66663 -16.79999,0 -52.26665,-3.73334 z M 636.58644,420.76782 q 13.99999,0 13.99999,13.99999 0,14 -13.06666,28.93333 -13.06666,13.99999 -28.93332,13.99999 -13.06667,0 -13.06667,-17.73332 0,-18.66666 14.93333,-28.93333 14.93333,-10.26666 26.13333,-10.26666 z m -87.73331,123.19996 q 4.66667,-7.46667 13.06667,-7.46667 8.39999,0 16.79999,8.4 0,3.73333 -12.13333,16.79999 -12.13333,13.06667 -41.06665,58.79998 -28.93332,44.79999 -28.93332,59.73332 0,9.33333 13.99999,11.19999 18.66666,0 57.86665,-17.73333 39.19998,-18.66666 69.06664,-37.33332 l 29.86666,-18.66666 q 0.93333,1.86667 0.93333,7.46667 0,5.6 -8.4,9.33333 -125.99995,85.86664 -175.4666,85.86664 -24.26666,0 -24.26666,-24.26666 0,-24.26666 26.13332,-67.19998 27.06666,-43.86665 62.53331,-84.9333 z m 328.53376,-25.19999 q 0,18.66666 -24.26666,40.13331 -24.26666,21.46666 -35.46665,21.46666 -10.26667,0 -10.26667,-5.59999 l 6.53333,-8.4 q 23.33333,-21.46666 23.33333,-31.73332 0,-13.06667 -14,-13.06667 -33.59998,0.93334 -93.3333,59.73332 -59.73331,58.79998 -59.73331,86.79997 0,12.13333 13.06666,12.13333 14,0 38.26666,-12.13333 24.26665,-13.06667 41.99998,-26.13333 l 18.66666,-13.06666 q 2.8,-1.86667 10.26667,-11.2 20.53332,-25.19999 27.06665,-25.19999 14.93333,1.86667 14.93333,13.06667 -24.26666,35.46665 -90.5333,146.53328 19.59999,-2.8 38.26665,-2.8 44.79999,0 44.79999,23.33332 0,13.06667 -17.73333,32.66666 -16.79999,20.53333 -26.13332,20.53333 -9.33334,0 -9.33334,-6.53334 0,-3.73333 10.26667,-12.13332 10.26666,-7.46667 10.26666,-18.66667 0,-14.93332 -19.59999,-14.93332 -19.6,0 -45.73332,4.66666 -41.06665,70.93331 -65.33331,110.1333 -23.33333,40.13332 -58.79998,89.59997 -67.19998,94.26667 -118.53329,94.26667 -31.73332,0 -31.73332,-32.6667 0,-57.86664 79.3333,-151.19994 78.39997,-93.3333 174.53327,-125.99996 l 52.26665,-98.9333 q -11.19999,7.46667 -38.26665,20.53333 -52.26665,25.19999 -72.79998,25.19999 -25.19999,0 -25.19999,-26.13332 0,-26.13333 40.13332,-70.93331 40.13332,-44.79999 95.19997,-79.33331 55.06665,-35.46665 91.46663,-35.46665 11.2,0 17.73333,5.59999 6.53333,4.66667 8.4,15.86667 z M 486.32036,1025.5676 q 0,19.6 14.93333,19.6 47.59998,0 192.2666,-256.66658 -84.93331,31.73333 -145.59995,111.06663 -61.59998,79.33331 -61.59998,125.99995 z M 892.31992,693.30106 q 8.39999,0 93.3333,-73.73331 85.86668,-74.66664 100.79998,-74.66664 14.9333,0 14.9333,13.06666 0,10.26667 -18.6666,31.73332 -18.6667,21.46666 -37.3334,46.66665 -17.7333,25.2 -17.7333,44.79999 0,10.26666 14.9333,10.26666 15.8667,0 55.0667,-17.73333 39.2,-18.66666 69.0666,-37.33332 l 29.8667,-18.66666 q 0.9333,1.86667 0.9333,7.46667 0,5.6 -8.4,9.33333 -125.9999,85.86664 -175.4666,85.86664 -24.26665,0 -24.26665,-26.13333 0,-17.73333 13.06665,-42.93332 13.0667,-25.19999 26.1333,-41.99998 l 12.1334,-16.8 q -42.00002,31.73333 -86.8,71.86664 -44.79999,39.19999 -68.13331,58.79998 -23.33333,20.53333 -32.66666,20.53333 -9.33333,0 -9.33333,-13.99999 0,-13.06667 43.86665,-93.33331 43.86665,-80.26663 100.79997,-172.6666 57.86668,-93.3333 120.39998,-168.93328 63.4666,-75.59997 96.1333,-75.59997 14,0 19.6,13.06666 2.8,4.66667 2.8,11.2 0,64.39998 -193.2,247.33325 -36.39995,35.46665 -70.93327,65.33331 -70.93331,119.46662 -70.93331,137.19995 z M 1196.5865,253.70121 q 0,-9.33333 -4.6667,-9.33333 -18.6666,0 -78.4,82.13331 -59.7333,82.1333 -126.93325,191.33326 209.99995,-191.33326 209.99995,-264.13324 z m 26.1325,361.19988 q -55.9999,0 -55.9999,-24.26666 0,-28.93333 66.2666,-68.13331 66.2666,-40.13332 119.4666,-40.13332 27.0667,0 27.0667,16.79999 0,9.33333 -14,20.53333 -14,11.19999 -27.0667,17.73333 -13.0666,6.53333 -14.9333,6.53333 -5.6,0 -7.4667,-4.66667 -1.8666,-6.53333 9.3334,-13.06666 12.1333,-7.46666 12.1333,-15.86666 0,-8.4 -21.4667,-8.4 -20.5333,0 -65.3333,29.86666 -44.8,28.93332 -44.8,47.59998 0,14 32.6667,14 5.6,0 20.5333,-0.93334 14.9333,-0.93333 14.9333,3.73334 0,4.66666 -46.6666,33.59998 -45.7333,28.93333 -45.7333,49.46665 0,23.33333 29.8666,23.33333 30.8,0 69.0667,-15.86666 61.6,-27.06666 111.9999,-57.86665 l 17.7334,-11.2 q 0.9333,1.86667 0.9333,7.46667 0,5.6 -8.4,9.33333 -49.4666,33.59999 -108.2666,64.39998 -58.8,29.86665 -106.4,29.86665 -46.6666,0 -46.6666,-30.79999 0,-31.73332 81.1999,-83.06663 z m 185.7339,105.46663 q -42,0 -42,-45.73332 0,-60.66665 65.3333,-173.59994 66.2667,-113.86663 150.2667,-203.4666 84.9333,-90.5333 133.4666,-90.5333 17.7333,0 17.7333,25.19999 0,39.19999 -66.2666,127.86662 -65.3334,88.66664 -140.9333,166.13328 -75.6,77.46664 -116.6667,106.39996 -1.8666,14.93333 -1.8666,20.53333 0,4.66666 0.9333,11.19999 0.9333,6.53334 7.4667,16.8 6.5333,10.26666 21.4666,10.26666 15.8667,0 55.0667,-17.73333 39.2,-18.66666 69.0666,-37.33332 l 29.8667,-18.66666 q 0.9333,1.86667 0.9333,7.46667 0,5.6 -8.4,9.33333 -125.9999,85.86664 -175.4666,85.86664 z m 291.1999,-465.73318 q -0.9333,-20.53332 -12.1333,-20.53332 -28.9333,0 -87.7333,65.33331 -58.8,65.33331 -113.8666,156.79994 -55.0667,90.53331 -71.8667,155.86662 39.2,-31.73333 100.8,-93.3333 61.6,-61.59998 121.3333,-140.93329 59.7333,-79.3333 63.4666,-123.19996 z m -138.1325,426.53319 q 42,0.93333 58.8,25.19999 87.7333,-45.73332 155.8666,-89.59997 0.9333,2.8 0.9333,8.4 0,5.6 -8.4,9.33333 -32.6666,22.39999 -67.2,42.93332 -34.5333,20.53332 -74.6666,42.93332 2.8,9.33333 2.8,22.39999 0,49.46665 -43.8667,122.26662 -42.9333,73.73331 -100.7999,126.93329 -58.8,54.13328 -98,54.13328 -17.7333,0 -17.7333,-28 0,-27.99995 98,-217.46655 -20.5334,7.46667 -32.6667,7.46667 -33.6,0 -33.6,-19.6 0,-23.33332 41.0667,-56.93331 40.1333,-33.59999 85.8666,-45.73332 104.5333,-189.4666 202.5333,-324.79988 97.9999,-136.26662 149.3332,-136.26662 20.5334,0 20.5334,20.53332 0,30.79999 -23.3334,73.73331 -22.3999,42.93332 -55.9999,84.93331 -33.6,41.06665 -75.6,84.9333 -41.0667,43.86665 -74.6666,75.59997 -33.6,30.79999 -59.7334,55.06665 -26.1333,23.33333 -27.0666,24.26666 -4.6667,7.46666 -13.0667,21.46666 -7.4666,13.06666 -9.3333,15.86666 z M 1408.4537,1001.301 q 0,10.2666 6.5333,10.2666 26.1333,0 71.8666,-48.5333 44.8,-47.59999 80.2667,-111.99996 36.4,-64.39998 36.4,-106.39997 0,-7.46666 -0.9334,-11.19999 -52.2666,29.86665 -99.8666,52.26665 -94.2666,172.6666 -94.2666,215.59997 z m 458.2665,-732.66646 q 0,-11.2 -10.2667,-11.2 -17.7333,0.93334 -90.5333,104.5333 -72.8,102.66663 -159.5999,244.53325 57.8666,-51.33332 125.9999,-125.99996 134.4,-145.59995 134.4,-211.86659 z m -403.1999,461.06651 q -24.2666,18.66666 -24.2666,31.73332 0,13.06666 24.2666,13.06666 3.7334,0 18.6667,-3.73333 l 36.4,-67.19998 q -30.8,8.4 -55.0667,26.13333 z m 55.0667,26.13332 q 23.3333,-9.33333 79.3333,-38.26665 -12.1334,-19.6 -43.8667,-19.6 h -1.8666 q -6.5334,11.2 -17.7334,30.79999 -11.2,19.6 -15.8666,27.06666 z"
       id="text1"
       style="font-size:933.333px;font-family:'Mr De Haviland';-inkscape-font-specification:'Mr De Haviland';display:none;fill:#ffffff;stroke:#000000;stroke-width:15.4;stroke-linecap:butt;stroke-linejoin:miter;stroke-dasharray:none;paint-order:stroke fill markers"
       aria-label="Highelf" />
    <path
       d="m 848.55649,873.31083 q -1.47067,0 -3.15153,-0.7504 -1.57576,-0.75034 -1.57576,-4.82365 v -71.28336 q 0,-3.43018 1.47076,-4.28772 1.47066,-0.96474 2.83632,-0.96474 1.78594,0 2.83641,0.96474 1.15563,0.85754 1.15563,4.28772 v 13.18474 q 3.36162,-9.75456 13.86682,-15.11423 10.61022,-5.46683 24.26694,-5.46683 10.7153,0 15.9679,3.64455 5.35762,3.64457 7.3536,8.36107 1.99597,4.71649 2.62628,8.03946 2.52129,-4.5021 7.35368,-9.1114 4.9374,-4.6093 12.60619,-7.7179 7.66879,-3.21578 18.38409,-3.21578 14.39206,0 21.32543,7.6107 7.03847,7.6107 7.03847,24.22562 v 46.84336 q 0,3.75178 -1.47067,4.71649 -1.36565,0.85756 -2.6263,0.85756 -1.57575,0 -2.9415,-0.7504 -1.36566,-0.75034 -1.36566,-4.82365 v -46.84336 q 0,-14.89983 -4.93739,-20.15229 -4.83238,-5.35965 -14.81235,-5.35965 -13.44662,0 -22.37598,5.57404 -8.82433,5.57404 -14.70725,15.3286 v 51.45266 q 0,3.75178 -1.36566,4.71649 -1.36565,0.85756 -2.62629,0.85756 -1.47076,0 -2.9415,-0.7504 -1.47067,-0.75034 -1.47067,-4.82365 v -51.45266 q 0,-9.75456 -4.51727,-15.3286 -4.41216,-5.57404 -14.28705,-5.57404 -14.81227,0 -25.31747,6.32439 -10.4001,6.32439 -12.92139,15.00702 v 51.02389 q 0,3.75178 -1.26063,4.71649 -1.15556,0.85756 -2.4162,0.85756 z m 212.09961,1.1791 q -26.263,0 -37.9237,-11.14809 -11.6608,-11.25526 -11.6608,-31.30033 0,-16.61493 6.6182,-25.94073 6.7234,-9.32579 18.174,-13.18474 11.4506,-3.85894 25.5276,-3.85894 21.8507,0 32.6712,8.57544 10.9252,8.46824 10.9252,24.33282 0,2.89422 -0.8404,6.86039 -0.8403,3.85893 -1.6808,3.85893 l -82.9908,-1.07194 q 0.4202,21.11701 10.7152,28.83487 10.4001,7.71794 30.3599,7.71794 11.7659,0 19.6448,-2.14389 7.9839,-2.25105 12.8163,-4.93089 4.9374,-2.78697 7.2486,-4.39485 0.3152,-0.2144 0.8405,-0.2144 1.1555,0 2.1009,1.1791 1.0505,1.07196 1.0505,2.35829 0,1.17911 -1.0505,1.92943 -1.1556,1.17909 -5.9879,4.28771 -4.7274,3.00146 -13.7619,5.68129 -8.9293,2.57259 -22.7961,2.57259 z m -41.0753,-48.1297 h 79.209 v -5.03804 q 0,-7.18193 -3.5717,-12.97035 -3.5717,-5.89562 -11.7659,-9.43299 -8.1939,-3.53737 -22.0608,-3.53737 -19.4346,0 -30.2549,6.86035 -10.7153,6.86035 -11.5557,24.1184 z m 156.9474,48.02255 q -12.6063,0 -23.2164,-3.75178 -10.5052,-3.75178 -16.9134,-12.86322 -6.4081,-9.11136 -6.4081,-25.19035 0,-24.0112 12.0809,-33.76578 12.1861,-9.75455 34.457,-9.75455 14.7072,0 24.162,2.25105 9.4546,2.25104 14.9173,5.46684 5.5677,3.10861 8.194,5.89562 V 761.5085 q 0,-2.8942 0.5253,-5.25246 0.5253,-2.35824 3.5717,-2.35824 3.0466,0 3.6768,2.14386 0.6303,2.14387 0.6303,5.25246 v 106.22826 q 0,3.43016 -1.3657,4.60926 -1.2605,1.17919 -2.7312,1.17919 -1.786,0 -3.0465,-1.07195 -1.2607,-1.07195 -1.2607,-4.5021 v -14.8998 q -1.6808,6.8603 -7.2486,11.14803 -5.4627,4.28771 -12.7112,6.53875 -7.2487,2.25105 -14.6022,3.00146 -7.3537,0.85756 -12.7113,0.85756 z m 0,-6.32446 q 6.3031,0 13.6567,-0.85748 7.4587,-0.96479 14.3921,-3.323 6.9334,-2.35828 12.081,-6.53875 5.2527,-4.2878 7.1435,-11.04095 v -38.58946 q -3.1515,-2.67983 -8.9294,-5.46685 -5.6728,-2.89421 -15.0224,-4.82367 -9.2445,-2.03668 -23.3215,-2.03668 -20.1699,0 -29.2044,8.89702 -8.9294,8.78982 -8.9294,28.29893 0,13.50631 5.1475,21.33142 5.1476,7.71795 13.762,10.93371 8.7192,3.21576 19.2243,3.21576 z m 88.7688,5.25251 q -2.9415,0 -3.5719,-1.82227 -0.6302,-1.82235 -0.6302,-4.93089 v -68.81793 q 0,-3.1086 0.6302,-5.25246 0.6304,-2.25107 3.5719,-2.25107 2.6263,0 3.3617,2.25107 0.8404,2.25104 0.8404,5.03806 v 69.03233 q 0,2.78699 -0.6303,4.82364 -0.5253,1.92952 -3.5718,1.92952 z m -0.1051,-100.76144 q -2.7313,0 -4.4121,-1.6079 -1.6809,-1.71509 -1.6809,-4.39491 0,-2.78702 1.6809,-4.50211 1.6808,-1.82229 4.4121,-1.82229 2.6263,0 4.4121,1.82229 1.891,1.71509 1.891,4.50211 0,2.67982 -1.891,4.39491 -1.7858,1.6079 -4.4121,1.6079 z m 69.2291,101.83339 q -10.7153,0 -19.5396,-2.46544 -8.7193,-2.57268 -13.9718,-8.0395 -5.1477,-5.57404 -5.1477,-14.57825 0,-10.50493 5.5678,-16.40052 5.5678,-5.89567 15.0225,-8.25388 9.4546,-2.46544 21.2203,-2.46544 13.4467,0 25.9479,1.50063 12.6061,1.50075 19.3295,4.5022 0,-14.2567 -4.9373,-21.22426 -4.8325,-7.07472 -13.7619,-9.32578 -8.8244,-2.35824 -20.8002,-2.35824 -16.3882,0 -24.5822,1.92946 -8.194,1.92948 -13.2365,3.64457 -0.6303,0.21439 -0.8404,0.21439 -1.2606,0 -2.3112,-1.28633 -1.0505,-1.39351 -1.0505,-2.78702 0,-1.39349 1.2606,-2.03666 1.7859,-0.85755 12.081,-3.32298 10.2951,-2.57263 31.7257,-2.57263 12.9213,0 23.1114,3.21578 10.19,3.1086 15.9678,12.3272 5.883,9.1114 5.883,27.1198 v 34.0874 q 0,2.46544 -0.7354,5.03811 -0.6303,2.46544 -3.5719,2.46544 -2.4161,0 -3.3616,-2.25105 -0.8404,-2.25105 -0.8404,-5.68129 v -6.00274 q -3.0466,3.21576 -8.9294,6.75314 -5.7779,3.43016 -15.3375,5.89559 -9.5598,2.3583 -24.162,2.3583 z m -0.8404,-6.32446 q 20.6952,0 32.3559,-4.71648 11.6608,-4.7165 16.9134,-9.11137 v -21.54579 q -10.19,-1.50073 -21.7458,-2.78707 -11.4506,-1.39349 -22.6911,-1.39349 -16.1779,0 -25.2124,4.28771 -9.0345,4.28772 -9.0345,16.50776 0,10.1833 8.2991,14.47102 8.299,4.28771 21.1154,4.28771 z"
       id="text3"
       style="font-size:269.205px;font-family:Gruppo;-inkscape-font-specification:Gruppo;display:none;fill:#ffffff;stroke:#000000;stroke-width:11.7946;stroke-dasharray:none;paint-order:stroke fill markers"
       aria-label="media" />
    <text
       xml:space="preserve"
       style="font-style:normal;font-variant:normal;font-weight:normal;font-stretch:normal;font-size:1217.66px;font-family:'Mr De Haviland';-inkscape-font-specification:'Mr De Haviland';text-align:start;writing-mode:lr-tb;direction:ltr;text-anchor:start;fill:#000000;stroke:#000000;stroke-width:49.5344;stroke-dasharray:none;paint-order:stroke fill markers"
       x="537.37811"
       y="913.93536"
       id="text4"><tspan
         id="tspan2"
         x="537.37811"
         y="913.93536"
         style="fill:#ffffff;stroke-width:49.5344">H</tspan></text>
  </g>
</svg>
