<?xml version="1.0" encoding="UTF-8" standalone="no"?>
<!-- Created with Inkscape (http://www.inkscape.org/) -->

<svg
   width="1920"
   height="1080"
   viewBox="0 0 1920 1080"
   version="1.1"
   id="svg1"
   xmlns="http://www.w3.org/2000/svg"
   xmlns:svg="http://www.w3.org/2000/svg">
  <defs
     id="defs1">
    <rect
       x="211.92802"
       y="203.59897"
       width="676.50386"
       height="301.69666"
       id="rect1" />
  </defs>
  <g
     id="layer1">
    <path
       style="display:inline;fill:#ffffff;stroke:#ffffff"
       d="m 1304.2981,792.78312 c 13.9198,0.31158 14.0876,0.61406 6.4329,0.86083 -7.6546,0.24677 -23.1316,0.43783 -40.5014,0.52655 -17.0607,0.0872 -35.3524,0.075 -48.4896,-0.0313 -13.1371,-0.10633 -21.1198,-0.30685 -17.5626,-0.59651 -5.6822,0.0354 -17.2618,0.0993 -28.8414,0.16324 -11.5796,0.0639 -23.1592,0.12784 -28.8414,0.16325 -55.4466,0.31467 -113.9904,0.53084 -170.46375,0.7987 -56.4734,0.26786 -110.8763,0.58742 -158.041,1.10887 -6.8978,0.0763 -13.9996,0.13894 -20.914,0.19479 -6.9144,0.0559 -13.6415,0.10488 -19.79004,0.15385 -16.25875,0.51844 -30.6365,0.75911 -43.1928,0.82042 -12.5563,0.0613 -23.29115,-0.0567 -32.26408,-0.25576 -9.72157,-0.21561 -17.73304,-0.52068 -25.205,-0.84909 -7.47195,-0.32841 -14.40438,-0.68016 -21.96787,-0.98917 -5.22234,-0.21189 -10.50792,-0.41015 -16.07802,-0.55703 -5.57009,-0.14688 -11.42469,-0.24237 -17.78505,-0.24873 -50.44128,1.49885 -98.62277,3.24396 -146.0877,5.1613 -47.46493,1.91734 -94.21329,4.0069 -141.7883,6.19463 -20.40669,0.93463 -42.58647,2.54926 -63.51389,4.2435 -20.92741,1.69424 -40.60245,3.46809 -55.99962,4.72114 0.001,-10e-5 -0.1293,0.0129 -0.25961,0.026 -0.1303,0.013 -0.2606,0.026 -0.25961,0.0259 -16.32646,1.63531 -24.71492,2.4899 -31.00251,3.1466 -6.28758,0.65669 -10.47428,1.11549 -18.39724,1.95921 -4.10219,0.43684 -6.64931,0.6861 -7.73184,0.7433 -1.08253,0.0572 -0.70047,-0.0777 1.0557,-0.40903 4.46489,-0.84249 11.72294,-1.91578 21.21674,-3.19323 9.49381,-1.27746 21.22338,-2.75908 34.63129,-4.41824 10.82301,-1.33673 22.10447,-2.73091 31.21736,-3.8898 9.1129,-1.15888 16.05721,-2.08246 18.20591,-2.47799 1.26569,-0.23298 1.54662,-0.37681 0.54977,-0.39712 -0.99686,-0.0203 -3.27148,0.0829 -7.1169,0.34392 -4.14024,0.28106 -9.31452,0.68681 -16.2588,1.28673 -6.94429,0.59991 -15.65857,1.394 -26.87884,2.45171 0.0383,-0.004 -0.71446,0.0677 -1.46716,0.13893 -0.7527,0.0712 -1.5054,0.14238 -1.46713,0.13876 -19.16655,1.97737 -36.55903,3.80392 -53.18575,5.87281 -16.62672,2.06889 -32.48767,4.38012 -48.59114,7.32683 -24.405433,4.46929 -43.804323,9.50577 -59.170353,14.22642 -15.36604,4.72065 -26.69922,9.12545 -34.973271,12.33137 -3.23594,1.25382 -5.6063496,2.14093 -6.5943496,2.38091 -0.9879899,0.23998 -0.5935799,-0.16718 1.70011,-1.50189 1.7771596,-1.03414 5.5347696,-3.04843 11.1067606,-5.64025 5.57199,-2.59181 12.95836,-5.76114 21.99301,-9.10535 4.55735,-1.93514 12.41183,-4.95299 23.28692,-8.36583 10.87508,-3.41283 24.77076,-7.22064 41.410513,-10.73569 16.00504,-3.38418 32.22985,-6.09341 49.4836,-8.45142 17.25374,-2.358 35.53643,-4.36477 55.65722,-6.34404 0,0 10e-6,0 10e-6,0 0,0 0,0 0,0 5.4376,-0.53578 10.89573,-1.06277 16.36093,-1.57279 5.4652,-0.51002 10.93746,-1.00307 16.40332,-1.47099 -7.04194,0.14622 -7.82982,-0.34662 -6.14286,-1.09511 1.68695,-0.74849 5.84872,-1.75262 8.70608,-2.629 1.41402,-0.43369 2.49663,-0.83474 2.76522,-1.15468 0.2686,-0.31995 -0.27682,-0.5588 -2.11886,-0.66809 -1.85152,-0.10985 -4.97765,-0.0886 -9.86899,0.12061 -4.89133,0.20919 -11.54786,0.60629 -20.46016,1.24809 -1.76196,0.0507 -3.15616,0.0818 -4.21206,0.0945 -1.0559,0.0127 -1.77351,0.007 -2.18229,-0.0164 v 0 0 c -0.27711,-0.0159 -0.41147,-0.0398 -0.41185,-0.0714 -3.7e-4,-0.0316 0.13324,-0.0708 0.39205,-0.11741 v 0 0 c 1.31739,-0.23777 6.971,-0.76789 15.08088,-1.46346 8.10987,-0.69557 18.67601,-1.55659 29.81844,-2.45618 9.59916,-0.77499 22.57294,-1.78899 34.70703,-2.78276 12.13409,-0.99377 23.42849,-1.9673 29.66888,-2.66135 1.96358,-0.1114 3.92851,-0.21818 5.89477,-0.32007 1.96627,-0.10188 3.93386,-0.19888 5.90275,-0.29073 55.28815,-2.56779 109.66549,-4.6676 163.31506,-6.49236 53.64958,-1.82476 106.57138,-3.37448 158.94846,-4.84209 24.91911,-0.69545 49.36519,-0.90797 73.21231,-0.99977 23.84712,-0.0918 47.09529,-0.0629 69.61855,-0.27549 3.9487,0.005 7.6516,-5.5e-4 11.1445,-0.0154 3.4928,-0.0148 6.7756,-0.0389 9.8838,-0.0709 v 0 0 c 29.5894,-0.30502 41.9083,-0.92905 53.1905,-1.24069 11.2822,-0.31163 21.5277,-0.31086 46.9699,0.63371 15.9569,0.81023 47.5869,1.71587 87.95575,2.42636 40.3688,0.71049 89.4765,1.22584 140.3886,1.25547 19.1564,0.0109 38.5337,-0.0217 57.7948,-0.13556 19.2612,-0.11381 38.4062,-0.30876 57.0979,-0.62234 16.55,-0.67456 51.013,-1.09318 87.0386,-1.35855 36.0257,-0.26537 73.6141,-0.37749 96.4149,-0.43907 12.8756,-0.0348 23.3667,-0.0355 29.8817,0.0492 6.5151,0.0847 9.0542,0.25499 6.0258,0.56219 -2.9387,0.29811 -11.3091,0.74992 -26.5774,1.22084 -15.2683,0.47091 -37.4345,0.96093 -67.9651,1.33545 -14.9963,0.97046 -2.1365,1.55408 23.8684,1.73423 26.0048,0.18015 65.1547,-0.0432 102.7384,-0.68653 14.8668,-0.25315 29.3945,-0.7506 42.5853,-1.26416 13.1908,-0.51356 25.0447,-1.04324 34.5638,-1.36085 5.3366,-0.17806 10.042,-0.31311 13.8016,-0.38598 3.7596,-0.0729 6.5735,-0.0835 8.1269,-0.0128 2.1965,-0.10526 4.238,-0.20592 6.1796,-0.30422 1.9416,-0.0983 3.7834,-0.19424 5.5805,-0.29009 2.3754,-0.12868 4.2374,-0.21581 5.9356,-0.32012 1.6983,-0.10431 3.2328,-0.2258 4.9531,-0.42324 0.2265,-0.0248 0.4733,-0.0575 0.7242,-0.0923 0.251,-0.0348 0.5062,-0.0716 0.7494,-0.1045 0.2608,-0.0362 0.5141,-0.0605 0.7585,-0.0758 0.2444,-0.0153 0.4799,-0.0214 0.7051,-0.0212 3.0132,0.0117 5.2465,0.15449 6.7315,0.33321 1.4851,0.17873 2.2219,0.39335 2.2419,0.54855 0.02,0.15519 -0.7089,0.24995 -2.1893,0.376 -1.4804,0.12604 -3.7123,0.28338 -6.6981,0.56371 -0.1958,0.0184 -0.3955,0.0416 -0.5964,0.0717 -0.201,0.0301 -0.4032,0.0672 -0.6041,0.11336 -0.2269,0.0517 -0.4743,0.11017 -0.728,0.16841 -0.2536,0.0582 -0.5134,0.11621 -0.765,0.16679 -1.6648,0.33489 -3.2637,0.58624 -5.0198,0.81625 -1.7561,0.23001 -3.6694,0.43868 -5.9631,0.68819 -4.6283,0.50412 -9.4309,0.96213 -14.8803,1.42199 -5.4493,0.45985 -11.5454,0.92155 -18.7607,1.43305 -8.5641,0.60713 -20.2549,1.42598 -33.2998,2.2022 -13.045,0.77622 -27.4441,1.50981 -41.425,1.94639 2.598,0.15333 3.6171,0.34317 3.1665,0.56204 -0.4506,0.21887 -2.3709,0.46678 -5.6519,0.73624 -7.8334,0.64383 -21.5703,1.31944 -39.2315,1.95002 -17.6611,0.63059 -39.2466,1.21615 -62.7771,1.67987 -24.6591,0.48597 -48.167,0.79692 -70.2374,1.0445 -22.0704,0.24758 -42.7034,0.4318 -61.6127,0.66432 -4.9932,0.37045 -3.9823,0.73014 0.3308,1.08088 4.3132,0.35075 11.9287,0.69254 20.1445,1.02719 8.2,0.334 16.9769,0.65593 23.6026,0.98578 6.6257,0.32985 11.1002,0.66762 10.6952,1.03329"
       id="path8" />
    <path
       d="m 553.51942,541.16778 q 6.53333,0 6.53333,6.53333 0,6.53333 -10.26667,11.19999 -63.46664,31.73333 -149.33328,34.53333 -44.79998,85.86663 -45.73332,88.66663 -0.93333,1.86667 -4.66666,9.33333 -2.8,6.53333 -5.6,10.26667 -5.6,9.33333 -12.13333,9.33333 -16.79999,0 -16.79999,-23.33333 0,-49.46665 -12.13333,-100.79996 -51.33332,-7.46667 -94.26663,-23.33333 l -125.999961,224.93325 -19.599993,14 q -11.199996,5.6 -17.733327,5.6 -8.399997,0 -8.399997,-9.33333 0,-5.6 3.733332,-13.06666 L 175.51955,549.56777 Q 107.38624,518.76779 66.319585,471.1678 25.252933,422.63449 25.252933,363.83451 q 0,-77.46664 55.99998,-77.46664 36.399987,0 83.066637,35.46665 47.59998,35.46666 87.7333,94.26663 L 434.05279,95.0346 q 10.26666,-14.933328 36.39999,-14.933328 6.53333,0 6.53333,4.666665 0,3.733332 -204.39993,366.799873 32.66666,58.79998 47.59998,122.26662 27.06666,3.73334 63.46665,3.73334 Q 489.11944,372.2345 670.18604,48.36795 680.4527,29.70129 708.45269,27.834624 q 7.46667,0 7.46667,5.599998 0,4.666665 -6.53333,15.866661 -6.53333,11.199996 -56.93332,99.866627 -182.93327,318.26656 -242.66658,428.39986 78.39997,-4.66667 143.73329,-36.39999 z m -368.66654,-7.46667 53.19998,-93.3333 q -35.46666,-53.19998 -77.46664,-85.86663 -41.99999,-32.66666 -70.93331,-32.66666 -31.733322,0 -31.733322,38.26665 0,55.06665 33.599988,99.86664 34.533324,44.79998 93.333304,73.7333 z m 33.59999,14 q 37.33332,14.93333 80.26663,22.39999 -15.86666,-51.33331 -39.19998,-95.19997 -40.13332,70.93331 -41.06665,72.79998 z m 104.53329,41.99998 q 8.4,41.06666 8.4,82.13331 l 0.93333,10.26666 q 6.53333,-14.93333 42.93332,-88.66663 -16.79999,0 -52.26665,-3.73334 z M 636.58644,420.76782 q 13.99999,0 13.99999,13.99999 0,14 -13.06666,28.93333 -13.06666,13.99999 -28.93332,13.99999 -13.06667,0 -13.06667,-17.73332 0,-18.66666 14.93333,-28.93333 14.93333,-10.26666 26.13333,-10.26666 z m -87.73331,123.19996 q 4.66667,-7.46667 13.06667,-7.46667 8.39999,0 16.79999,8.4 0,3.73333 -12.13333,16.79999 -12.13333,13.06667 -41.06665,58.79998 -28.93332,44.79999 -28.93332,59.73332 0,9.33333 13.99999,11.19999 18.66666,0 57.86665,-17.73333 39.19998,-18.66666 69.06664,-37.33332 l 29.86666,-18.66666 q 0.93333,1.86667 0.93333,7.46667 0,5.6 -8.4,9.33333 -125.99995,85.86664 -175.4666,85.86664 -24.26666,0 -24.26666,-24.26666 0,-24.26666 26.13332,-67.19998 27.06666,-43.86665 62.53331,-84.9333 z m 328.53376,-25.19999 q 0,18.66666 -24.26666,40.13331 -24.26666,21.46666 -35.46665,21.46666 -10.26667,0 -10.26667,-5.59999 l 6.53333,-8.4 q 23.33333,-21.46666 23.33333,-31.73332 0,-13.06667 -14,-13.06667 -33.59998,0.93334 -93.3333,59.73332 -59.73331,58.79998 -59.73331,86.79997 0,12.13333 13.06666,12.13333 14,0 38.26666,-12.13333 24.26665,-13.06667 41.99998,-26.13333 l 18.66666,-13.06666 q 2.8,-1.86667 10.26667,-11.2 20.53332,-25.19999 27.06665,-25.19999 14.93333,1.86667 14.93333,13.06667 -24.26666,35.46665 -90.5333,146.53328 19.59999,-2.8 38.26665,-2.8 44.79999,0 44.79999,23.33332 0,13.06667 -17.73333,32.66666 -16.79999,20.53333 -26.13332,20.53333 -9.33334,0 -9.33334,-6.53334 0,-3.73333 10.26667,-12.13332 10.26666,-7.46667 10.26666,-18.66667 0,-14.93332 -19.59999,-14.93332 -19.6,0 -45.73332,4.66666 -41.06665,70.93331 -65.33331,110.1333 -23.33333,40.13332 -58.79998,89.59997 -67.19998,94.26667 -118.53329,94.26667 -31.73332,0 -31.73332,-32.6667 0,-57.86664 79.3333,-151.19994 78.39997,-93.3333 174.53327,-125.99996 l 52.26665,-98.9333 q -11.19999,7.46667 -38.26665,20.53333 -52.26665,25.19999 -72.79998,25.19999 -25.19999,0 -25.19999,-26.13332 0,-26.13333 40.13332,-70.93331 40.13332,-44.79999 95.19997,-79.33331 55.06665,-35.46665 91.46663,-35.46665 11.2,0 17.73333,5.59999 6.53333,4.66667 8.4,15.86667 z M 486.32036,1025.5676 q 0,19.6 14.93333,19.6 47.59998,0 192.2666,-256.66658 -84.93331,31.73333 -145.59995,111.06663 -61.59998,79.33331 -61.59998,125.99995 z M 892.31992,693.30106 q 8.39999,0 93.3333,-73.73331 85.86668,-74.66664 100.79998,-74.66664 14.9333,0 14.9333,13.06666 0,10.26667 -18.6666,31.73332 -18.6667,21.46666 -37.3334,46.66665 -17.7333,25.2 -17.7333,44.79999 0,10.26666 14.9333,10.26666 15.8667,0 55.0667,-17.73333 39.2,-18.66666 69.0666,-37.33332 l 29.8667,-18.66666 q 0.9333,1.86667 0.9333,7.46667 0,5.6 -8.4,9.33333 -125.9999,85.86664 -175.4666,85.86664 -24.26665,0 -24.26665,-26.13333 0,-17.73333 13.06665,-42.93332 13.0667,-25.19999 26.1333,-41.99998 l 12.1334,-16.8 q -42.00002,31.73333 -86.8,71.86664 -44.79999,39.19999 -68.13331,58.79998 -23.33333,20.53333 -32.66666,20.53333 -9.33333,0 -9.33333,-13.99999 0,-13.06667 43.86665,-93.33331 43.86665,-80.26663 100.79997,-172.6666 57.86668,-93.3333 120.39998,-168.93328 63.4666,-75.59997 96.1333,-75.59997 14,0 19.6,13.06666 2.8,4.66667 2.8,11.2 0,64.39998 -193.2,247.33325 -36.39995,35.46665 -70.93327,65.33331 -70.93331,119.46662 -70.93331,137.19995 z M 1196.5865,253.70121 q 0,-9.33333 -4.6667,-9.33333 -18.6666,0 -78.4,82.13331 -59.7333,82.1333 -126.93325,191.33326 209.99995,-191.33326 209.99995,-264.13324 z m 26.1325,361.19988 q -55.9999,0 -55.9999,-24.26666 0,-28.93333 66.2666,-68.13331 66.2666,-40.13332 119.4666,-40.13332 27.0667,0 27.0667,16.79999 0,9.33333 -14,20.53333 -14,11.19999 -27.0667,17.73333 -13.0666,6.53333 -14.9333,6.53333 -5.6,0 -7.4667,-4.66667 -1.8666,-6.53333 9.3334,-13.06666 12.1333,-7.46666 12.1333,-15.86666 0,-8.4 -21.4667,-8.4 -20.5333,0 -65.3333,29.86666 -44.8,28.93332 -44.8,47.59998 0,14 32.6667,14 5.6,0 20.5333,-0.93334 14.9333,-0.93333 14.9333,3.73334 0,4.66666 -46.6666,33.59998 -45.7333,28.93333 -45.7333,49.46665 0,23.33333 29.8666,23.33333 30.8,0 69.0667,-15.86666 61.6,-27.06666 111.9999,-57.86665 l 17.7334,-11.2 q 0.9333,1.86667 0.9333,7.46667 0,5.6 -8.4,9.33333 -49.4666,33.59999 -108.2666,64.39998 -58.8,29.86665 -106.4,29.86665 -46.6666,0 -46.6666,-30.79999 0,-31.73332 81.1999,-83.06663 z m 185.7339,105.46663 q -42,0 -42,-45.73332 0,-60.66665 65.3333,-173.59994 66.2667,-113.86663 150.2667,-203.4666 84.9333,-90.5333 133.4666,-90.5333 17.7333,0 17.7333,25.19999 0,39.19999 -66.2666,127.86662 -65.3334,88.66664 -140.9333,166.13328 -75.6,77.46664 -116.6667,106.39996 -1.8666,14.93333 -1.8666,20.53333 0,4.66666 0.9333,11.19999 0.9333,6.53334 7.4667,16.8 6.5333,10.26666 21.4666,10.26666 15.8667,0 55.0667,-17.73333 39.2,-18.66666 69.0666,-37.33332 l 29.8667,-18.66666 q 0.9333,1.86667 0.9333,7.46667 0,5.6 -8.4,9.33333 -125.9999,85.86664 -175.4666,85.86664 z m 291.1999,-465.73318 q -0.9333,-20.53332 -12.1333,-20.53332 -28.9333,0 -87.7333,65.33331 -58.8,65.33331 -113.8666,156.79994 -55.0667,90.53331 -71.8667,155.86662 39.2,-31.73333 100.8,-93.3333 61.6,-61.59998 121.3333,-140.93329 59.7333,-79.3333 63.4666,-123.19996 z m -138.1325,426.53319 q 42,0.93333 58.8,25.19999 87.7333,-45.73332 155.8666,-89.59997 0.9333,2.8 0.9333,8.4 0,5.6 -8.4,9.33333 -32.6666,22.39999 -67.2,42.93332 -34.5333,20.53332 -74.6666,42.93332 2.8,9.33333 2.8,22.39999 0,49.46665 -43.8667,122.26662 -42.9333,73.73331 -100.7999,126.93329 -58.8,54.13328 -98,54.13328 -17.7333,0 -17.7333,-28 0,-27.99995 98,-217.46655 -20.5334,7.46667 -32.6667,7.46667 -33.6,0 -33.6,-19.6 0,-23.33332 41.0667,-56.93331 40.1333,-33.59999 85.8666,-45.73332 104.5333,-189.4666 202.5333,-324.79988 97.9999,-136.26662 149.3332,-136.26662 20.5334,0 20.5334,20.53332 0,30.79999 -23.3334,73.73331 -22.3999,42.93332 -55.9999,84.93331 -33.6,41.06665 -75.6,84.9333 -41.0667,43.86665 -74.6666,75.59997 -33.6,30.79999 -59.7334,55.06665 -26.1333,23.33333 -27.0666,24.26666 -4.6667,7.46666 -13.0667,21.46666 -7.4666,13.06666 -9.3333,15.86666 z M 1408.4537,1001.301 q 0,10.2666 6.5333,10.2666 26.1333,0 71.8666,-48.5333 44.8,-47.59999 80.2667,-111.99996 36.4,-64.39998 36.4,-106.39997 0,-7.46666 -0.9334,-11.19999 -52.2666,29.86665 -99.8666,52.26665 -94.2666,172.6666 -94.2666,215.59997 z m 458.2665,-732.66646 q 0,-11.2 -10.2667,-11.2 -17.7333,0.93334 -90.5333,104.5333 -72.8,102.66663 -159.5999,244.53325 57.8666,-51.33332 125.9999,-125.99996 134.4,-145.59995 134.4,-211.86659 z m -403.1999,461.06651 q -24.2666,18.66666 -24.2666,31.73332 0,13.06666 24.2666,13.06666 3.7334,0 18.6667,-3.73333 l 36.4,-67.19998 q -30.8,8.4 -55.0667,26.13333 z m 55.0667,26.13332 q 23.3333,-9.33333 79.3333,-38.26665 -12.1334,-19.6 -43.8667,-19.6 h -1.8666 q -6.5334,11.2 -17.7334,30.79999 -11.2,19.6 -15.8666,27.06666 z"
       id="text1"
       style="font-size:933.333px;font-family:'Mr De Haviland';-inkscape-font-specification:'Mr De Haviland';fill:#ffffff;stroke:#ffffff"
       aria-label="Highelf" />
    <path
       d="m 707.18581,948.85459 q -1.8402,0 -3.9434,-0.9202 -1.9717,-0.9201 -1.9717,-5.9151 v -87.41281 q 0,-4.20632 1.8403,-5.25791 1.8402,-1.18303 3.549,-1.18303 2.2347,0 3.5491,1.18303 1.446,1.05159 1.446,5.25791 v 16.16808 q 4.2063,-11.96175 17.3511,-18.53414 13.2762,-6.70382 30.3644,-6.70382 13.4077,0 19.9801,4.46921 6.7038,4.46923 9.2013,10.25293 2.4975,5.7837 3.2862,9.85858 3.1548,-5.52081 9.2014,-11.17306 6.178,-5.65225 15.7737,-9.46424 9.5957,-3.94342 23.0034,-3.94342 18.0083,0 26.6838,9.33278 8.807,9.33279 8.807,29.70719 v 57.44272 q 0,4.6007 -1.8402,5.7837 -1.7088,1.0516 -3.2862,1.0516 -1.9717,0 -3.6806,-0.9202 -1.7088,-0.9201 -1.7088,-5.9151 v -57.44272 q 0,-18.27124 -6.178,-24.71218 -6.0466,-6.57238 -18.5342,-6.57238 -16.8253,0 -27.9983,6.83528 -11.0416,6.83528 -18.4027,18.79703 v 63.09497 q 0,4.6007 -1.7088,5.7837 -1.7088,1.0516 -3.2862,1.0516 -1.8403,0 -3.6806,-0.9202 -1.8402,-0.9201 -1.8402,-5.9151 v -63.09497 q 0,-11.96175 -5.6523,-18.79703 -5.5208,-6.83528 -17.8769,-6.83528 -18.5341,0 -31.6789,7.75541 -13.0133,7.75542 -16.1681,18.40269 v 62.56918 q 0,4.6007 -1.5774,5.7837 -1.4459,1.0516 -3.0233,1.0516 z m 265.3931,1.4459 q -32.862,0 -47.4527,-13.6706 -14.5907,-13.802 -14.5907,-38.38271 0,-20.37445 8.2812,-31.8104 8.4127,-11.43595 22.7405,-16.16807 14.3278,-4.73211 31.9418,-4.73211 27.34109,0 40.88029,10.51581 13.6705,10.38437 13.6705,29.83864 0,3.54913 -1.0516,8.41273 -1.0515,4.7321 -2.1031,4.7321 l -103.84369,-1.3145 q 0.5257,25.89521 13.4076,35.35941 13.0134,9.4643 37.9884,9.4643 14.7222,0 24.5808,-2.629 9.98999,-2.7604 16.03659,-6.0466 6.178,-3.4176 9.0699,-5.3893 0.3943,-0.2629 1.0516,-0.2629 1.4459,0 2.6289,1.4459 1.3145,1.3145 1.3145,2.8919 0,1.4459 -1.3145,2.366 -1.4459,1.4459 -7.4925,5.2579 -5.9152,3.6806 -17.2197,6.9668 -11.17299,3.1547 -28.52409,3.1547 z m -51.3961,-59.02011 h 99.11159 v -6.17802 q 0,-8.807 -4.4692,-15.90518 -4.4692,-7.22962 -14.7222,-11.5674 -10.25289,-4.33777 -27.60399,-4.33777 -24.3178,0 -37.8569,8.41265 -13.4077,8.41266 -14.4593,29.57572 z m 196.38289,58.88871 q -15.7737,0 -29.0499,-4.6007 -13.1448,-4.6007 -21.1631,-15.7738 -8.0183,-11.173 -8.0183,-30.89021 0,-29.4443 15.1165,-41.40605 15.2479,-11.96173 43.1148,-11.96173 18.4027,0 30.233,2.76039 11.8303,2.7604 18.6656,6.70384 6.9667,3.81198 10.2529,7.22962 v -50.47592 q 0,-3.54909 0.6573,-6.44094 0.6572,-2.89185 4.4692,-2.89185 3.812,0 4.6006,2.62895 0.7887,2.62896 0.7887,6.44094 v 130.26476 q 0,4.2063 -1.7088,5.6522 -1.5774,1.446 -3.4176,1.446 -2.2346,0 -3.812,-1.3145 -1.5774,-1.3145 -1.5774,-5.5208 v -18.2712 q -2.1031,8.4126 -9.0699,13.6705 -6.8353,5.2579 -15.9052,8.0183 -9.0699,2.7604 -18.2712,3.6806 -9.2013,1.0516 -15.9052,1.0516 z m 0,-7.7555 q 7.8869,0 17.0882,-1.0515 9.3328,-1.1831 18.0084,-4.0749 8.6755,-2.8919 15.1165,-8.0183 6.5724,-5.258 8.9384,-13.5392 V 868.4085 q -3.9434,-3.2862 -11.173,-6.70384 -7.0982,-3.54909 -18.7971,-5.91515 -11.5674,-2.4975 -29.1814,-2.4975 -25.2379,0 -36.5424,10.91016 -11.1731,10.77871 -11.1731,34.70221 0,16.56241 6.4409,26.15811 6.441,9.4643 17.2198,13.4077 10.9101,3.9434 24.0548,3.9434 z m 111.0734,6.441 q -3.6806,0 -4.4693,-2.2346 -0.7886,-2.2347 -0.7886,-6.0466 v -84.38953 q 0,-3.81199 0.7886,-6.44094 0.7887,-2.76041 4.4693,-2.76041 3.2862,0 4.2063,2.76041 1.0516,2.7604 1.0516,6.17804 v 84.65243 q 0,3.4176 -0.7887,5.9151 -0.6572,2.3661 -4.4692,2.3661 z m -0.1315,-123.56094 q -3.4176,0 -5.5208,-1.97172 -2.1031,-2.10316 -2.1031,-5.38936 0,-3.41764 2.1031,-5.5208 2.1032,-2.23462 5.5208,-2.23462 3.2862,0 5.5208,2.23462 2.3661,2.10316 2.3661,5.5208 0,3.2862 -2.3661,5.38936 -2.2346,1.97172 -5.5208,1.97172 z m 86.6241,124.87544 q -13.4077,0 -24.4493,-3.0233 -10.9101,-3.1548 -17.4825,-9.8586 -6.441,-6.8353 -6.441,-17.8769 0,-12.88191 6.9668,-20.11151 6.9667,-7.2297 18.797,-10.1215 11.8303,-3.02334 26.5524,-3.02334 16.8254,0 32.4676,1.84027 15.7738,1.84027 24.1864,5.52087 0,-17.48261 -6.178,-26.02672 -6.0466,-8.67555 -17.2197,-11.43595 -11.0416,-2.89185 -26.0266,-2.89185 -20.5059,0 -30.7588,2.36606 -10.2529,2.36606 -16.5624,4.46922 -0.7887,0.2629 -1.0516,0.2629 -1.5774,0 -2.8919,-1.57738 -1.3144,-1.70882 -1.3144,-3.41764 0,-1.70882 1.5773,-2.49751 2.2347,-1.05158 15.1165,-4.07488 12.8819,-3.15473 39.6973,-3.15473 16.168,0 28.9185,3.94342 12.7504,3.81199 19.98,15.11649 7.3611,11.17306 7.3611,33.25627 v 41.80041 q 0,3.0233 -0.9201,6.1781 -0.7887,3.0233 -4.4693,3.0233 -3.0233,0 -4.2063,-2.7604 -1.0516,-2.7604 -1.0516,-6.9668 v -7.361 q -3.812,3.9434 -11.173,8.2812 -7.2297,4.2063 -19.1914,7.2296 -11.9618,2.8919 -30.233,2.8919 z m -1.0516,-7.7555 q 25.8952,0 40.4859,-5.7837 14.5907,-5.7837 21.1631,-11.173 v -26.42101 q -12.7504,-1.8403 -27.2097,-3.4177 -14.3278,-1.7088 -28.3927,-1.7088 -20.2429,0 -31.5474,5.2579 -11.3045,5.2579 -11.3045,20.24301 0,12.4875 10.3843,17.7454 10.3844,5.2579 26.421,5.2579 z"
       id="text3"
       style="font-size:269.205px;font-family:Gruppo;-inkscape-font-specification:Gruppo;stroke-width:1.00952;fill:#ffffff;stroke:#ffffff"
       aria-label="media" />
  </g>
</svg>
