<?xml version="1.0" encoding="UTF-8" standalone="no"?>
<!-- Created with Inkscape (http://www.inkscape.org/) -->

<svg
   version="1.1"
   id="svg1"
   width="176.42648"
   height="290.53024"
   viewBox="0 0 176.42648 290.53024"
   sodipodi:docname="HighelfLogoIcon.svg"
   inkscape:version="1.4.2 (f4327f4, 2025-05-13)"
   xml:space="preserve"
   xmlns:inkscape="http://www.inkscape.org/namespaces/inkscape"
   xmlns:sodipodi="http://sodipodi.sourceforge.net/DTD/sodipodi-0.dtd"
   xmlns="http://www.w3.org/2000/svg"
   xmlns:svg="http://www.w3.org/2000/svg"><defs
     id="defs1"><rect
       x="1037.7021"
       y="513.97919"
       width="1948.7363"
       height="1169.2418"
       id="rect2" /><rect
       x="911.03424"
       y="589.49274"
       width="1756.2986"
       height="682.05774"
       id="rect1" /></defs><sodipodi:namedview
     id="namedview1"
     pagecolor="#ffffff"
     bordercolor="#000000"
     borderopacity="0.25"
     inkscape:showpageshadow="2"
     inkscape:pageopacity="0.0"
     inkscape:pagecheckerboard="0"
     inkscape:deskcolor="#d1d1d1"
     inkscape:zoom="1.1611328"
     inkscape:cx="426.73844"
     inkscape:cy="91.720774"
     inkscape:window-width="2560"
     inkscape:window-height="1369"
     inkscape:window-x="4472"
     inkscape:window-y="-8"
     inkscape:window-maximized="1"
     inkscape:current-layer="svg1" /><path
     style="fill:#f9f9f9;stroke-width:0.234331"
     d="m 132.72311,289.82692 c -0.10487,-0.38664 -0.1874,-27.14838 -0.18344,-59.47051 0.004,-32.32213 -0.0816,-58.99895 -0.19011,-59.28178 -0.18161,-0.47331 -3.11201,-0.51471 -36.785069,-0.51973 -20.123245,-0.003 -36.687491,-0.11027 -36.809414,-0.23836 -0.326447,-0.34292 -0.47677,-16.09418 -0.158337,-16.58953 0.225965,-0.35157 6.373951,-0.40462 36.778481,-0.31749 26.585349,0.0762 36.601959,0.01 36.855979,-0.24418 0.25418,-0.25418 0.33849,-13.73857 0.31079,-49.69789 -0.0208,-27.141976 0.0559,-49.93644 0.17069,-50.65436 l 0.20872,-1.30531 21.75255,0.08022 21.75253,0.08022 -11.11746,119.0078 10.92339,119.43083 c 0.0412,0.45072 -4.1487,0.42306 -21.8349,0.42306 H 132.91376 Z M 0.154728,238.88865 8.464666,120.06001 0,1.2088886 0.234823,0.11534433 21.624348,0.03199963 c 19.866466,-0.077409 21.41734,-0.045348 21.780085,0.45027 0.309177,0.422429 0.390537,12.82038937 0.390537,59.50306037 0,52.30542 0.05359,59.02303 0.474192,59.44362 0.418258,0.41827 4.772415,0.47681 36.92569,0.49648 20.048328,0.0123 36.531048,0.10159 36.628278,0.1985 0.36213,0.36099 0.37366,15.71241 0.0124,16.3876 l -0.35112,0.65607 -36.279642,-0.15846 c -21.348096,-0.0933 -36.49677,-0.0423 -36.807189,0.12387 -0.49172,0.26317 -0.528206,3.71325 -0.536946,50.78516 -0.0063,34.67384 -0.111683,50.60508 -0.335727,50.82913 -0.48851,0.48851 -43.069761,0.62728 -43.37008,0.14135 z"
     id="path1"
     sodipodi:nodetypes="sssssssccsccccsscsccccsssscscccccscc" /></svg>
